# xmcd
#
# Track frame offsets: 
#        150
#        20160
#        35692
#        54122
#        69275
#        86002
#        102865
#        120862
#        139637
#        154667
#        171085
#        193982
#
# Disc length: 2737 seconds
#
# Revision: 1
# Processed by: cddbd v1.5.2PL0 Copyright (c) Steve Scherf et al.
# Submitted via: ExactAudioCopy v0.99pb5
#
DISCID=970aaf0c
DTITLE=Supergrass - Supergrass (The X-Ray Album)
DYEAR=1999
DGENRE=Rock
TTITLE0=Moving
TTITLE1=Your Love
TTITLE2=What Went Wrong (In Your Head)
TTITLE3=Beautiful People
TTITLE4=Shotover Hill
TTITLE5=Eon
TTITLE6=Mary
TTITLE7=Jesus Came From Outta Space
TTITLE8=Pumping On Your Stereo
TTITLE9=Born Again
TTITLE10=Far Away
TTITLE11=Mama and Papa
EXTD=
EXTT0=
EXTT1=
EXTT2=
EXTT3=
EXTT4=
EXTT5=
EXTT6=
EXTT7=
EXTT8=
EXTT9=
EXTT10=
EXTT11=
PLAYORDER=
